<svg width="34" height="34" viewBox="0 0 34 34" fill="none" xmlns="http://www.w3.org/2000/svg">
<g clip-path="url(#clip0_60_506)">
<path d="M17 0C13.6377 0 10.3509 0.997033 7.55526 2.86502C4.75962 4.733 2.58069 7.38804 1.294 10.4944C0.00730476 13.6007 -0.329352 17.0189 0.326597 20.3165C0.982546 23.6142 2.60164 26.6433 4.97913 29.0208C7.35663 31.3983 10.3857 33.0174 13.6834 33.6734C16.9811 34.3293 20.3992 33.9926 23.5056 32.706C26.6119 31.4193 29.267 29.2403 31.1349 26.4447C33.0029 23.6491 34 20.3623 34 17C34 12.4913 32.2089 8.1673 29.0208 4.97918C25.8327 1.79107 21.5086 0 17 0V0ZM21.3081 15.3895L21.0263 17.7583C21.0141 17.8682 20.9617 17.9697 20.879 18.0433C20.7964 18.1168 20.6895 18.1571 20.5789 18.1564H18.1184V25.1801C18.119 25.264 18.0864 25.3447 18.0277 25.4046C17.9691 25.4645 17.8891 25.4988 17.8052 25.5H15.3C15.2582 25.4994 15.217 25.4906 15.1787 25.4741C15.1404 25.4576 15.1057 25.4337 15.0767 25.4038C15.0476 25.3739 15.0247 25.3386 15.0093 25.2998C14.9938 25.261 14.9862 25.2196 14.9868 25.1779L15.0002 18.1564H13.1369C13.0183 18.1564 12.9045 18.1093 12.8206 18.0254C12.7367 17.9415 12.6896 17.8277 12.6896 17.7091V15.3425C12.6896 15.2239 12.7367 15.1101 12.8206 15.0262C12.9045 14.9423 13.0183 14.8951 13.1369 14.8951H14.9868V12.6001C14.9868 9.945 16.5682 8.5 18.8789 8.5H20.7735C20.8922 8.5 21.0059 8.54713 21.0898 8.63103C21.1737 8.71493 21.2209 8.82872 21.2209 8.94737V10.9404C21.2209 11.059 21.1737 11.1728 21.0898 11.2567C21.0059 11.3406 20.8922 11.3878 20.7735 11.3878H19.6126C18.3555 11.4079 18.1184 12.0096 18.1184 12.9088V14.8884H20.8742C20.9366 14.8898 20.998 14.9043 21.0545 14.9309C21.111 14.9575 21.1613 14.9956 21.2022 15.0428C21.243 15.09 21.2736 15.1452 21.2918 15.2049C21.3101 15.2646 21.3156 15.3275 21.3081 15.3895Z" fill="#262626"/>
</g>
<defs>
<clipPath id="clip0_60_506">
<rect width="34" height="34" fill="white"/>
</clipPath>
</defs>
</svg>
