<svg width="634" height="633" viewBox="0 0 634 633" fill="none" xmlns="http://www.w3.org/2000/svg">
<path fill-rule="evenodd" clip-rule="evenodd" d="M209.321 517.107C140.191 481.823 83.3039 418.642 74.5438 341.686C65.9338 266.049 110.823 196.826 167.031 145.595C218.513 98.6707 288.225 69.4884 356.372 84.811C417.327 98.5165 443.721 162.914 477.553 215.415C510.841 267.069 557.858 317.25 544.758 377.142C530.477 442.432 473.962 488.286 412.232 514.044C346.633 541.416 272.769 549.491 209.321 517.107Z" fill="#FFB901"/>
<path fill-rule="evenodd" clip-rule="evenodd" d="M269.856 505.393C189.148 498.661 109.246 460.077 70.3881 389.078C32.1956 319.295 48.2103 234.503 82.264 162.635C113.455 96.8093 169.261 40.9234 241.135 28.7276C305.423 17.8188 356.353 69.6727 409.768 107.063C462.323 143.851 527.557 173.767 538.56 236.922C550.556 305.769 514.082 372.556 464.633 421.963C412.084 474.466 343.93 511.571 269.856 505.393Z" stroke="white"/>
</svg>
