<svg width="414" height="275" viewBox="0 0 414 275" fill="none" xmlns="http://www.w3.org/2000/svg">
<path d="M291.908 130.056L291.685 131.031L291.908 130.056ZM0.810864 242.018C0.268518 242.122 -0.086601 242.647 0.0176979 243.189L1.71726 252.027C1.82155 252.569 2.34575 252.924 2.88811 252.82C3.43046 252.716 3.78557 252.192 3.68128 251.649L2.17055 243.793L10.0266 242.283C10.569 242.178 10.9241 241.654 10.8198 241.112C10.7155 240.569 10.1913 240.214 9.64893 240.319L0.810864 242.018ZM391.121 1.47623C391.967 3.03618 392.784 4.57839 393.572 6.103L395.348 5.18457C394.554 3.64792 393.731 2.09402 392.879 0.522675L391.121 1.47623ZM398.037 15.2083C399.51 18.3872 400.849 21.4837 402.062 24.4995L403.918 23.7532C402.691 20.7041 401.338 17.5762 399.852 14.3678L398.037 15.2083ZM405.578 34.061C406.693 37.4219 407.639 40.6725 408.425 43.8161L410.365 43.331C409.566 40.1359 408.606 36.8369 407.476 33.4311L405.578 34.061ZM410.443 53.7613C410.983 57.2835 411.304 60.6538 411.421 63.8782L413.42 63.8052C413.299 60.4993 412.971 57.0521 412.42 53.4582L410.443 53.7613ZM411.099 73.9677C410.732 77.4421 410.102 80.719 409.235 83.8085L411.161 84.3485C412.059 81.1473 412.709 77.7599 413.088 74.1777L411.099 73.9677ZM405.627 93.1966C404.107 96.2426 402.321 99.0684 400.306 101.688L401.891 102.907C403.982 100.189 405.837 97.2542 407.416 94.0896L405.627 93.1966ZM393.477 109.06C391.003 111.3 388.33 113.344 385.497 115.205L386.595 116.877C389.507 114.964 392.263 112.857 394.82 110.542L393.477 109.06ZM376.696 120.181C373.684 121.644 370.558 122.947 367.352 124.101L368.03 125.982C371.296 124.807 374.488 123.477 377.57 121.98L376.696 120.181ZM357.652 127.097C354.373 127.956 351.053 128.681 347.725 129.285L348.082 131.253C351.457 130.641 354.827 129.905 358.158 129.032L357.652 127.097ZM337.649 130.756C334.225 131.139 330.831 131.404 327.504 131.565L327.6 133.563C330.968 133.4 334.404 133.131 337.871 132.743L337.649 130.756ZM317.328 131.742C313.778 131.693 310.366 131.529 307.147 131.269L306.986 133.262C310.251 133.526 313.707 133.692 317.301 133.742L317.328 131.742ZM297.066 130.048C295.307 129.755 293.658 129.431 292.131 129.081L291.685 131.031C293.254 131.39 294.943 131.721 296.737 132.021L297.066 130.048ZM292.131 129.081C290.473 128.702 288.847 128.352 287.252 128.031L286.858 129.992C288.435 130.309 290.043 130.655 291.685 131.031L292.131 129.081ZM277.55 126.383C274.101 125.914 270.812 125.6 267.669 125.436L267.565 127.433C270.648 127.594 273.881 127.902 277.28 128.365L277.55 126.383ZM257.753 125.435C254.276 125.633 250.996 126.048 247.891 126.669L248.283 128.63C251.29 128.029 254.476 127.625 257.867 127.432L257.753 125.435ZM238.311 129.426C235.139 130.646 232.169 132.122 229.363 133.836L230.406 135.543C233.111 133.89 235.973 132.468 239.029 131.293L238.311 129.426ZM221.327 139.735C218.863 141.866 216.523 144.204 214.268 146.731L215.76 148.063C217.966 145.591 220.245 143.315 222.635 141.247L221.327 139.735ZM208.041 154.428C206.136 157 204.269 159.71 202.416 162.546L204.09 163.64C205.927 160.83 207.77 158.153 209.648 155.619L208.041 154.428ZM197.182 170.901C195.532 173.629 193.871 176.449 192.182 179.352L193.911 180.358C195.597 177.461 197.251 174.651 198.893 171.936L197.182 170.901ZM187.269 187.852C185.668 190.627 184.03 193.463 182.339 196.355L184.065 197.365C185.76 194.467 187.401 191.626 189.001 188.851L187.269 187.852ZM177.349 204.772C175.694 207.518 173.984 210.307 172.208 213.133L173.901 214.197C175.685 211.359 177.402 208.56 179.062 205.804L177.349 204.772ZM166.911 221.353C166.015 222.708 165.103 224.07 164.172 225.438L165.826 226.562C166.762 225.187 167.679 223.818 168.579 222.456L166.911 221.353ZM164.172 225.438C163.175 226.905 162.17 228.331 161.157 229.717L162.772 230.897C163.798 229.493 164.816 228.048 165.826 226.562L164.172 225.438ZM154.773 237.82C152.467 240.528 150.13 243.047 147.768 245.385L149.175 246.807C151.579 244.427 153.954 241.867 156.296 239.116L154.773 237.82ZM140.083 252.303C137.343 254.534 134.576 256.548 131.789 258.358L132.878 260.035C135.727 258.185 138.552 256.129 141.346 253.854L140.083 252.303ZM122.827 263.465C119.683 265.017 116.522 266.336 113.353 267.442L114.012 269.331C117.258 268.198 120.494 266.847 123.712 265.258L122.827 263.465ZM103.455 270.225C100.058 270.957 96.6622 271.469 93.2789 271.784L93.4644 273.775C96.924 273.453 100.399 272.929 103.876 272.18L103.455 270.225ZM82.9869 272.16C79.5291 272.096 76.0965 271.848 72.7019 271.442L72.4641 273.428C75.9214 273.842 79.4212 274.095 82.9503 274.159L82.9869 272.16ZM62.5206 269.746C59.1242 269.025 55.7822 268.165 52.5083 267.193L51.939 269.11C55.26 270.096 58.6536 270.97 62.1054 271.702L62.5206 269.746ZM42.7008 263.894C39.4112 262.66 36.2142 261.334 33.1259 259.951L32.3082 261.776C35.4314 263.175 38.667 264.517 41.9984 265.766L42.7008 263.894ZM23.7975 255.45C20.6001 253.798 17.5631 252.117 14.71 250.455L13.7034 252.183C16.583 253.86 19.6495 255.558 22.8793 257.227L23.7975 255.45ZM5.85885 245.017C4.34082 244.036 2.90611 243.084 1.56056 242.172L0.438845 243.828C1.79543 244.747 3.24218 245.707 4.77321 246.697L5.85885 245.017Z" fill="#FFB901"/>
</svg>
