<svg width="34" height="34" viewBox="0 0 34 34" fill="none" xmlns="http://www.w3.org/2000/svg">
<g clip-path="url(#clip0_60_510)">
<path d="M17 19.6865C18.4837 19.6865 19.6864 18.4837 19.6864 17.0001C19.6864 15.5164 18.4837 14.3136 17 14.3136C15.5163 14.3136 14.3135 15.5164 14.3135 17.0001C14.3135 18.4837 15.5163 19.6865 17 19.6865Z" fill="#262626"/>
<path d="M20.4358 10.2112H13.5642C12.6743 10.2112 11.8209 10.5647 11.1917 11.1939C10.5624 11.8232 10.2089 12.6766 10.2089 13.5664V20.4358C10.2089 21.3257 10.5624 22.1791 11.1917 22.8083C11.8209 23.4376 12.6743 23.7911 13.5642 23.7911H20.4358C21.3256 23.7911 22.1791 23.4376 22.8083 22.8083C23.4375 22.1791 23.791 21.3257 23.791 20.4358V13.5642C23.7904 12.6747 23.4367 11.8219 22.8075 11.1931C22.1783 10.5644 21.3253 10.2112 20.4358 10.2112ZM17 21.3976C16.1301 21.3981 15.2797 21.1405 14.5562 20.6576C13.8327 20.1746 13.2687 19.488 12.9355 18.6845C12.6023 17.8809 12.5149 16.9966 12.6843 16.1434C12.8538 15.2902 13.2724 14.5064 13.8874 13.8912C14.5023 13.276 15.2859 12.8569 16.139 12.687C16.9921 12.5172 17.8764 12.6041 18.6801 12.9369C19.4838 13.2697 20.1708 13.8333 20.6541 14.5566C21.1374 15.2798 21.3954 16.1301 21.3954 17C21.3942 18.1656 20.9308 19.2831 20.1068 20.1075C19.2829 20.9319 18.1656 21.3959 17 21.3976ZM21.4222 13.6895C21.207 13.6899 20.9965 13.6265 20.8174 13.5072C20.6383 13.3879 20.4986 13.2182 20.4161 13.0194C20.3335 12.8207 20.3118 12.6019 20.3537 12.3908C20.3955 12.1797 20.4991 11.9858 20.6513 11.8337C20.8035 11.6815 20.9974 11.5779 21.2085 11.536C21.4195 11.4942 21.6383 11.5159 21.837 11.5984C22.0358 11.681 22.2055 11.8207 22.3248 11.9998C22.4441 12.1789 22.5075 12.3894 22.5071 12.6046C22.5065 12.8921 22.392 13.1677 22.1887 13.3711C21.9854 13.5744 21.7098 13.6889 21.4222 13.6895Z" fill="#262626"/>
<path d="M17 0C13.6377 0 10.3509 0.997033 7.55526 2.86502C4.75962 4.733 2.58069 7.38804 1.294 10.4944C0.00730476 13.6007 -0.329352 17.0189 0.326597 20.3165C0.982546 23.6142 2.60164 26.6433 4.97913 29.0208C7.35663 31.3983 10.3857 33.0174 13.6834 33.6734C16.9811 34.3293 20.3992 33.9926 23.5056 32.706C26.6119 31.4193 29.267 29.2403 31.135 26.4447C33.0029 23.6491 34 20.3623 34 17C34 12.4913 32.2089 8.1673 29.0208 4.97918C25.8327 1.79107 21.5086 0 17 0V0ZM25.5 20.4358C25.4988 21.7785 24.9648 23.066 24.0154 24.0154C23.0659 24.9649 21.7785 25.4988 20.4358 25.5H13.5642C12.2216 25.4982 10.9345 24.9641 9.98519 24.0148C9.03585 23.0654 8.50173 21.7784 8.49995 20.4358V13.5642C8.50173 12.2216 9.03585 10.9346 9.98519 9.98523C10.9345 9.0359 12.2216 8.50178 13.5642 8.5H20.4358C21.7783 8.50178 23.0654 9.0359 24.0147 9.98523C24.9641 10.9346 25.4982 12.2216 25.5 13.5642V20.4358Z" fill="#262626"/>
</g>
<defs>
<clipPath id="clip0_60_510">
<rect width="34" height="34" fill="white"/>
</clipPath>
</defs>
</svg>
