<svg width="196" height="65" viewBox="0 0 196 65" fill="none" xmlns="http://www.w3.org/2000/svg">
<path fill-rule="evenodd" clip-rule="evenodd" d="M31.7554 50.6345L35.6898 52.9375L39.6265 55.2383L43.5632 52.9375L47.4999 50.6345L51.4365 48.3338L55.3732 46.033L59.3099 43.7323V39.1285V34.5248L55.3732 36.8255L51.4365 39.1263L47.4999 41.4271L43.5632 43.7278L39.6265 46.0286L35.6898 43.7278L31.7554 41.4271L27.8165 39.1263V25.3173L31.7554 23.0165L35.6898 20.7135L39.6265 18.4128L43.5632 20.7113L47.4999 23.0143L43.5632 25.3173L39.6265 27.6203L35.6898 29.921V34.5248L39.6265 36.8255L43.5654 34.5203L47.5021 32.2196L51.4388 29.9188L55.3754 27.618L59.3121 25.3173L62.0166 23.7338L63.2443 23.0143L59.9015 21.06L59.3099 20.7113L55.3732 18.4105L51.4365 16.1076L47.4999 13.8068L43.5632 11.506L39.6265 9.20527L35.6898 11.5083L31.7554 13.809L27.8165 16.1098L23.882 18.4128L19.9431 20.7135L16.0087 23.0143L19.9431 25.3173V29.9188V34.5225V39.1263V41.4915V43.73L23.882 46.033L27.8165 48.3338L31.7554 50.6345ZM31.7554 4.60153L35.6898 2.30076L39.6265 0L43.5632 2.3052L47.4999 4.60597L51.4365 6.90673L55.3732 9.20749L59.3099 11.5083L63.2466 13.809L67.1832 16.1098L71.1199 18.4128L75.0566 20.7135L78.9933 23.0165L75.0566 25.3195L73.026 26.5076L41.5303 8.09486L40.5784 8.65229L72.0718 27.0651V35.8506C72.5122 36.006 72.8303 36.4902 72.8303 36.9299C72.8303 37.3718 72.6479 37.6495 72.3632 37.856L72.4944 38.2624L73.284 40.7297H71.7049H70.1257L70.9153 38.2624L71.0443 37.856C70.7596 37.6472 70.5772 37.3274 70.5772 36.9299C70.5772 36.5324 70.793 36.1526 71.1199 35.9528V27.6203L67.1832 29.921V34.5248V39.1285V43.7323V48.3338L63.2466 50.6345L59.3099 52.9375L55.3732 55.2383L51.4365 57.5391L47.4999 59.8398L43.5632 62.1428L39.6265 64.4436L35.6898 62.1428L31.7554 59.8398L27.8165 57.5391L23.882 55.2383L19.9431 52.9375L16.0087 50.6345L12.0698 48.3316V43.73V39.1263V34.5225V29.9188L8.13312 27.618L4.19644 25.3173L0.259766 23.0165L4.19644 20.7135L8.13312 18.4128L12.0698 16.112L16.0087 13.809L19.9431 11.5083L23.882 9.20527L27.8165 6.90451L31.7554 4.60153ZM126.88 27.0136V23.1716H115.601V18.3813H125.223V14.657H115.601V10.1643H126.495V6.32231H110.835V27.0136H126.88ZM131.439 6.32227H136.235V23.1116H146.626V27.0136H131.439V6.32227ZM150.058 6.32227H154.853V27.0136H150.058V6.32227ZM164.799 10.2242H158.169V6.32227H176.227V10.2242H169.596V27.0136H164.799V10.2242ZM89.9951 55.2623C90.9226 55.973 92.1503 56.5482 93.6805 56.9923C95.2107 57.4365 96.7942 57.6586 98.429 57.6541C100.322 57.6541 101.93 57.3676 103.253 56.7969C104.576 56.2261 105.568 55.4511 106.229 54.4761C106.889 53.499 107.221 52.4219 107.221 51.2382C107.221 49.8591 106.861 48.7664 106.14 47.9581C105.417 47.1497 104.554 46.5589 103.549 46.1836C102.541 45.8083 101.249 45.4352 99.67 45.0599C98.151 44.7246 97.0211 44.3848 96.2805 44.0405C95.5398 43.6963 95.1706 43.1678 95.1706 42.4593C95.1706 41.7509 95.4909 41.1779 96.1337 40.7449C96.7765 40.3118 97.7684 40.0942 99.1095 40.0942C101.022 40.0942 102.937 40.636 104.852 41.7198L106.331 38.0843C105.384 37.4936 104.278 37.0405 103.015 36.7252C101.754 36.4098 100.46 36.2522 99.1385 36.2522C97.2435 36.2522 95.6399 36.5386 94.3277 37.1094C93.0155 37.6801 92.0347 38.4552 91.383 39.4301C90.7313 40.4051 90.4066 41.4955 90.4066 42.6969C90.4066 44.0783 90.7669 45.1798 91.4875 46.0082C92.2081 46.8365 93.0733 47.4384 94.0786 47.8115C95.0861 48.1868 96.3783 48.5621 97.9575 48.9352C98.9828 49.1728 99.7968 49.3883 100.4 49.5859C101 49.7836 101.494 50.0456 101.879 50.3699C102.266 50.6941 102.457 51.1027 102.457 51.5957C102.457 52.2642 102.132 52.8016 101.48 53.2058C100.829 53.61 99.8213 53.8121 98.4601 53.8121C97.2368 53.8121 96.0136 53.6167 94.7903 53.2214C93.5671 52.8283 92.5106 52.3064 91.6232 51.6557L89.9951 55.2623ZM115.245 40.5139H108.615V36.6119H126.673V40.5139H120.04V57.3033H115.245V40.5139ZM129.455 48.2003C129.455 51.2339 130.278 53.5702 131.926 55.2047C133.574 56.8392 135.878 57.6587 138.839 57.6587C141.799 57.6587 144.103 56.8415 145.751 55.2047C147.397 53.5702 148.222 51.2361 148.222 48.2003V36.6143H143.485V48.0226C143.485 49.9347 143.091 51.3383 142.302 52.2355C141.512 53.1327 140.367 53.5813 138.868 53.5813C135.789 53.5813 134.25 51.7291 134.25 48.0226V36.6143H129.455V48.2003ZM153.7 36.612H163.115C165.366 36.612 167.352 37.0406 169.08 37.8978C170.806 38.7551 172.149 39.9632 173.106 41.5177C174.062 43.0745 174.542 44.8867 174.542 46.9565C174.542 49.0263 174.064 50.8385 173.106 52.3953C172.149 53.9521 170.806 55.1602 169.08 56.0175C167.352 56.8747 165.366 57.3033 163.115 57.3033H153.7V36.612ZM162.877 53.3725C164.95 53.3725 166.602 52.7951 167.834 51.6424C169.069 50.4898 169.685 48.9286 169.685 46.9565C169.685 44.9867 169.069 43.4254 167.834 42.2706C166.6 41.118 164.948 40.5406 162.877 40.5406H158.495V53.368H162.877V53.3725ZM187.949 57.3033V49.9724L196.001 36.612H191.294L185.759 45.8039L180.223 36.612H175.132L183.154 49.9124V57.3033H187.949Z" fill="white"/>
</svg>
