<svg width="554" height="543" viewBox="0 0 554 543" fill="none" xmlns="http://www.w3.org/2000/svg">
<path fill-rule="evenodd" clip-rule="evenodd" d="M250.929 505.912C170.222 499.18 90.3195 460.597 51.4613 389.598C13.2689 319.814 29.2836 235.023 63.3373 163.155C94.5278 97.3288 150.334 41.4429 222.208 29.2471C286.496 18.3384 337.426 70.1922 390.841 107.582C443.397 144.37 508.63 174.287 519.634 237.442C531.629 306.289 495.156 373.076 445.706 422.482C393.157 474.985 325.003 512.091 250.929 505.912Z" stroke="white"/>
<path fill-rule="evenodd" clip-rule="evenodd" d="M153.993 374.836C121.226 328.043 106.092 267.315 127.051 214.212C147.652 162.019 200.848 132.443 255.177 118.477C304.938 105.686 360.417 110.725 399.459 144.189C434.381 174.121 429.248 225.13 433.078 270.96C436.847 316.052 450.062 364.917 420.787 399.379C388.874 436.946 336.208 447.307 287.11 442.791C234.935 437.991 184.066 417.784 153.993 374.836Z" stroke="white"/>
</svg>
