<svg width="316" height="146" viewBox="0 0 316 146" fill="none" xmlns="http://www.w3.org/2000/svg">
<path d="M127.959 42.0591L127.763 41.0784L127.959 42.0591ZM309.444 145.832C309.903 146.138 310.524 146.015 310.831 145.555L315.829 138.071C316.135 137.611 316.012 136.99 315.552 136.684C315.093 136.377 314.472 136.501 314.165 136.96L309.723 143.613L303.07 139.171C302.61 138.864 301.989 138.988 301.683 139.447C301.376 139.906 301.5 140.527 301.959 140.834L309.444 145.832ZM0.561623 1.65518C1.29146 3.06941 2.1626 4.55752 3.17649 6.09725L4.84685 4.99732C3.8687 3.51188 3.03387 2.08465 2.3389 0.737995L0.561623 1.65518ZM9.50787 14.1957C11.6549 16.5614 14.1038 18.9607 16.8614 21.3285L18.1643 19.8111C15.4691 17.4969 13.0797 15.1554 10.9889 12.8516L9.50787 14.1957ZM24.9879 27.5469C27.6868 29.3871 30.5948 31.1681 33.7156 32.8545L34.6665 31.095C31.6066 29.4415 28.7572 27.6963 26.1145 25.8944L24.9879 27.5469ZM42.9414 37.2708C45.9764 38.5484 49.1721 39.7312 52.5309 40.7968L53.1356 38.8904C49.835 37.8433 46.6964 36.6815 43.7174 35.4275L42.9414 37.2708ZM62.3818 43.4595C65.6004 44.1852 68.9462 44.804 72.4208 45.3009L72.7039 43.321C69.2816 42.8316 65.9881 42.2224 62.8216 41.5085L62.3818 43.4595ZM82.5669 46.3663C85.8547 46.5909 89.2442 46.7088 92.7364 46.7096L92.7369 44.7096C89.2894 44.7088 85.9452 44.5924 82.7032 44.371L82.5669 46.3663ZM102.919 46.389C106.218 46.1832 109.6 45.8758 113.066 45.4592L112.828 43.4735C109.399 43.8856 106.055 44.1895 102.794 44.3929L102.919 46.389ZM123.125 43.9779C124.784 43.6898 126.46 43.3773 128.154 43.0398L127.763 41.0784C126.085 41.4127 124.425 41.7222 122.783 42.0074L123.125 43.9779ZM128.154 43.0398C129.889 42.6941 131.61 42.3743 133.318 42.0798L132.978 40.1089C131.253 40.4064 129.515 40.7294 127.763 41.0784L128.154 43.0398ZM143.578 40.5899C147.081 40.1784 150.522 39.8749 153.903 39.6737L153.784 37.6772C150.365 37.8807 146.885 38.1876 143.345 38.6036L143.578 40.5899ZM164.263 39.3712C167.785 39.3771 171.237 39.4956 174.619 39.7196L174.752 37.7239C171.326 37.4971 167.831 37.3772 164.266 37.3712L164.263 39.3712ZM184.927 40.7493C188.408 41.2167 191.81 41.7972 195.134 42.4819L195.537 40.523C192.168 39.829 188.72 39.2407 185.193 38.7671L184.927 40.7493ZM205.187 44.928C208.556 45.8764 211.837 46.9325 215.031 48.0856L215.71 46.2044C212.471 45.0352 209.144 43.9644 205.729 43.0028L205.187 44.928ZM224.653 51.9578C227.853 53.3818 230.956 54.9024 233.964 56.5068L234.905 54.7422C231.856 53.1159 228.71 51.5743 225.466 50.1306L224.653 51.9578ZM242.919 61.6958C245.885 63.5551 248.746 65.493 251.503 67.4944L252.678 65.8759C249.885 63.8486 246.987 61.8853 243.981 60.0012L242.919 61.6958ZM259.69 73.8629C262.385 76.1046 264.965 78.4 267.431 80.7314L268.805 79.2781C266.309 76.9186 263.698 74.595 260.969 72.3253L259.69 73.8629ZM274.753 88.0988C277.162 90.6762 279.44 93.2734 281.588 95.8677L283.128 94.5923C280.956 91.9681 278.652 89.3407 276.215 86.7332L274.753 88.0988ZM287.976 104.07C290.095 106.965 292.051 109.826 293.846 112.619L295.529 111.538C293.712 108.712 291.733 105.817 289.59 102.889L287.976 104.07ZM299.17 121.51C300.983 124.776 302.548 127.879 303.869 130.752L305.686 129.917C304.343 126.996 302.755 123.848 300.918 120.539L299.17 121.51ZM307.688 140.309C308.306 142.189 308.746 143.83 309.019 145.195L310.98 144.805C310.688 143.341 310.224 141.62 309.589 139.685L307.688 140.309Z" fill="#FFB901"/>
</svg>
